<svg width="32" height="32" viewBox="0 0 32 32" fill="none" xmlns="http://www.w3.org/2000/svg">
<rect width="32" height="32" fill="url(#paint0_angular_2371_8)"/>
<path d="M5.94 23.2C4.87333 23.2 4.06 22.9 3.5 22.3C2.94 21.6867 2.66 20.8133 2.66 19.68V12.32C2.66 11.1867 2.94 10.32 3.5 9.72C4.06 9.10667 4.87333 8.8 5.94 8.8C7.00667 8.8 7.82 9.10667 8.38 9.72C8.94 10.32 9.22 11.1867 9.22 12.32V13.52H7.14V12.18C7.14 11.26 6.76 10.8 6 10.8C5.24 10.8 4.86 11.26 4.86 12.18V19.84C4.86 20.7467 5.24 21.2 6 21.2C6.76 21.2 7.14 20.7467 7.14 19.84V17.1H6.04V15.1H9.22V19.68C9.22 20.8133 8.94 21.6867 8.38 22.3C7.82 22.9 7.00667 23.2 5.94 23.2ZM12.7595 17.04L10.0995 9H12.4395L13.9395 14.14H13.9795L15.4795 9H17.6195L14.9595 17.04V23H12.7595V17.04ZM19.0106 9H22.1506L23.5506 19.02H23.5906L24.9906 9H28.1306V23H26.0506V12.4H26.0106L24.4106 23H22.5706L20.9706 12.4H20.9306V23H19.0106V9Z" fill="white"/>
<defs>
<radialGradient id="paint0_angular_2371_8" cx="0" cy="0" r="1" gradientUnits="userSpaceOnUse" gradientTransform="translate(11.3 10.9491) rotate(77.2558) scale(21.3057 31.3496)">
<stop offset="0.0895454" stop-color="#003D85"/>
<stop offset="0.870294" stop-color="#B80027"/>
</radialGradient>
</defs>
</svg>
